<?xml version="1.0" encoding="UTF-8"?>
<svg version="1.1" xmlns="http://www.w3.org/2000/svg" width="150" height="150">
<path d="M0 0 C12.21817986 9.96352619 21.41768045 21.95786782 24.34228516 37.75146484 C24.61915981 40.52978155 24.67692695 43.2731366 24.65478516 46.06396484 C24.64741333 47.1759021 24.64741333 47.1759021 24.63989258 48.31030273 C24.30902387 63.91882198 17.22311622 77.07790632 6.16650391 87.87646484 C1.33334771 92.03541606 -3.88913046 95.15759943 -9.53271484 98.06396484 C-10.46760742 98.55243896 -10.46760742 98.55243896 -11.42138672 99.05078125 C-20.39378121 103.44780332 -29.06842766 105.00352206 -38.99584961 104.55834961 C-56.35712134 103.92775748 -66.94122608 110.39270284 -80.47241211 120.29858398 C-82.65771484 121.75146484 -82.65771484 121.75146484 -84.65771484 121.75146484 C-84.65771484 111.85146484 -84.65771484 101.95146484 -84.65771484 91.75146484 C-85.97771484 91.09146484 -87.29771484 90.43146484 -88.65771484 89.75146484 C-98.42983145 83.13906902 -106.10623507 71.21034276 -108.65771484 59.75146484 C-108.83689453 59.01025391 -109.01607422 58.26904297 -109.20068359 57.50537109 C-111.61534062 42.95551464 -109.25210999 27.94503563 -100.65771484 15.75146484 C-97.82541123 12.2409276 -94.81671817 8.96936485 -91.65771484 5.75146484 C-91.04154297 5.11080078 -90.42537109 4.47013672 -89.79052734 3.81005859 C-67.1921893 -17.86688799 -24.55855272 -18.49667727 0 0 Z M-89.01318359 16.13427734 C-97.05457473 25.51841484 -101.11645609 36.57429807 -100.93115234 48.91552734 C-99.71519074 61.52678626 -93.49300789 72.47565541 -84.52880859 81.21630859 C-82.55981104 82.94314746 -82.55981104 82.94314746 -79.49755859 84.36474609 C-76.3931994 86.97377425 -76.2261303 87.29968741 -75.85302734 91.07958984 C-75.80012607 92.71952922 -75.77758739 94.36068045 -75.78271484 96.00146484 C-75.76208984 96.84193359 -75.74146484 97.68240234 -75.72021484 98.54833984 C-75.67323122 100.61561929 -75.66196959 102.68365594 -75.65771484 104.75146484 C-72.89606185 103.78194837 -70.75018853 102.82292179 -68.42333984 101.02490234 C-60.19397935 94.81454644 -52.97945236 95.36504011 -43.02319336 95.66357422 C-34.14362287 95.89151036 -27.02047538 94.99686705 -18.65771484 91.75146484 C-17.61873047 91.35056641 -16.57974609 90.94966797 -15.50927734 90.53662109 C-2.86119711 84.92789657 6.69249727 75.33958873 12.34228516 62.75146484 C16.61078465 51.54281511 16.31122275 41.03160326 12.34228516 29.75146484 C10.63756985 26.17672851 8.63967849 22.97328549 6.34228516 19.75146484 C5.86275391 19.06439453 5.38322266 18.37732422 4.88916016 17.66943359 C-4.1788688 6.05960865 -19.04179163 -0.44844383 -33.25146484 -2.85791016 C-54.1379933 -5.25315424 -74.1466376 1.09515121 -89.01318359 16.13427734 Z " fill="#111F54" transform="translate(117.65771484375,20.24853515625)"/>
<path d="M0 0 C3.34425629 2.57250484 4.81699852 4.62748893 5.375 8.8125 C5 12 5 12 3 14.875 C-0.3425835 17.24266331 -2.06013415 17.75726358 -6.0625 17.484375 C-9.52395669 16.61901083 -11.01181405 14.85801731 -13 12 C-13.55878277 8.08852059 -13.23182354 5.28900312 -11 2 C-7.33218328 -0.44521115 -4.26546767 -0.72237759 0 0 Z " fill="#111F54" transform="translate(79,58)"/>
<path d="M0 0 C2.9375 2.0625 2.9375 2.0625 5 5 C5.65622237 9.08316143 5.37781677 11.22793965 3.5625 14.9375 C0.29952023 17.56380079 -1.77075324 17.67645366 -5.87109375 17.40625 C-8 17 -8 17 -10.5625 15.5625 C-12.70907738 11.73599249 -12.89487669 8.27813857 -12 4 C-8.57473068 -0.25563764 -5.29763755 -0.85140604 0 0 Z " fill="#111F54" transform="translate(112,58)"/>
<path d="M0 0 C2.9375 1.4375 2.9375 1.4375 5 4 C5.89487669 8.27813857 5.70907738 11.73599249 3.5625 15.5625 C-0.26400751 17.70907738 -3.72186143 17.89487669 -8 17 C-11.31578076 14.33120085 -11.89008359 12.68392436 -12.5625 8.5 C-12 5 -12 5 -9.9375 2.0625 C-6.2404927 -0.53327109 -4.43355658 -0.71253588 0 0 Z " fill="#111F54" transform="translate(45,58)"/>
</svg>
