<?xml version="1.0" encoding="UTF-8"?>
<svg version="1.1" xmlns="http://www.w3.org/2000/svg" width="1920" height="432">
<path d="M0 0 C1.99311394 0.01385069 3.98622826 0.02767299 5.9793492 0.04047686 C8.10939725 0.05534404 10.23937865 0.07452604 12.36938858 0.09405899 C16.80939844 0.13166654 21.24914832 0.13968928 25.68930054 0.13998413 C26.8234486 0.1400601 26.8234486 0.1400601 27.98050874 0.14013761 C29.53583058 0.14010823 31.09115242 0.14000388 32.64647424 0.13982713 C49.36161275 0.14200464 66.07670693 0.19804319 82.79171276 0.25977612 C92.35823896 0.29451369 101.92461797 0.31980514 111.49121094 0.32324219 C119.93232617 0.32629786 128.37318978 0.34695904 136.81420785 0.38821012 C141.25056587 0.40931265 145.6865679 0.42225659 150.1229763 0.41383934 C185.33776121 0.35756697 185.33776121 0.35756697 200.7722168 6.12768555 C200.7722168 6.78768555 200.7722168 7.44768555 200.7722168 8.12768555 C201.59012695 8.27463867 201.59012695 8.27463867 202.42456055 8.42456055 C208.3347908 9.59650364 213.35638807 11.53407907 218.7722168 14.12768555 C220.07234756 14.73454984 221.3731883 15.33989436 222.67456055 15.9440918 C226.37752159 17.66403924 230.07572148 19.39388801 233.7722168 21.12768555 C233.7722168 21.78768555 233.7722168 22.44768555 233.7722168 23.12768555 C234.6384668 23.37518555 235.5047168 23.62268555 236.3972168 23.87768555 C240.01813262 25.21876548 242.59829421 26.93035453 245.7722168 29.12768555 C247.45656839 30.11225821 249.14432528 31.09101917 250.8347168 32.06518555 C254.7175036 34.36458703 257.66254712 36.83509413 260.7722168 40.12768555 C261.4322168 40.45768555 262.0922168 40.78768555 262.7722168 41.12768555 C266.78819099 43.13567264 269.47548153 46.76418484 272.2722168 50.19018555 C274.57698418 53.11119474 274.57698418 53.11119474 277.1081543 54.90112305 C280.25027465 57.52723537 282.48276812 60.40815975 284.8972168 63.69018555 C287.37284387 67.01704174 289.8227324 70.20414969 292.7722168 73.12768555 C296.7722168 79.13437451 296.7722168 79.13437451 296.7722168 82.12768555 C297.4322168 82.12768555 298.0922168 82.12768555 298.7722168 82.12768555 C299.61291095 83.72800692 300.44453184 85.33309726 301.2722168 86.94018555 C301.7362793 87.83350586 302.2003418 88.72682617 302.6784668 89.6472168 C303.7722168 92.12768555 303.7722168 92.12768555 303.7722168 95.12768555 C304.4322168 95.12768555 305.0922168 95.12768555 305.7722168 95.12768555 C306.61141078 97.39650642 307.44373404 99.66745581 308.2722168 101.94018555 C308.62993164 102.90408203 308.62993164 102.90408203 308.99487305 103.88745117 C310.04290426 106.77702293 310.7722168 109.02844615 310.7722168 112.12768555 C311.4322168 112.12768555 312.0922168 112.12768555 312.7722168 112.12768555 C313.59011949 115.95988637 314.40055293 119.79363084 315.2097168 123.62768555 C315.43981445 124.7053418 315.66991211 125.78299805 315.90698242 126.89331055 C316.1293457 127.9503418 316.35170898 129.00737305 316.58081055 130.09643555 C316.88716431 131.54179687 316.88716431 131.54179687 317.19970703 133.01635742 C318.66071185 140.95624887 318.89738322 148.56781975 318.8347168 156.62768555 C318.83020508 157.7362793 318.82569336 158.84487305 318.82104492 159.98706055 C318.80934837 162.70065954 318.79295765 165.41414315 318.7722168 168.12768555 C318.22613046 168.12915211 317.68004412 168.13061867 317.11740971 168.13212967 C303.7506278 168.16938983 290.38409863 168.22890124 277.01751804 168.31158829 C270.553173 168.35092242 264.08896133 168.38317961 257.62451172 168.39868164 C251.37382023 168.41394115 245.12349575 168.44855016 238.87296867 168.49599457 C236.50067288 168.51071305 234.12832466 168.51872102 231.75598335 168.5195694 C215.79025369 168.53101017 200.370684 168.95258828 185.77612305 176.1784668 C182.24053956 177.85321687 178.50124155 178.96401825 174.7722168 180.12768555 C174.7722168 180.78768555 174.7722168 181.44768555 174.7722168 182.12768555 C174.08514648 182.45381836 173.39807617 182.77995117 172.69018555 183.1159668 C171.78913086 183.55295898 170.88807617 183.98995117 169.9597168 184.44018555 C169.06639648 184.86944336 168.17307617 185.29870117 167.25268555 185.7409668 C164.96046483 187.02244452 163.53549059 188.22272011 161.7722168 190.12768555 C161.0503418 190.58143555 160.3284668 191.03518555 159.5847168 191.50268555 C157.51790272 193.01697974 157.51790272 193.01697974 157.3347168 195.69018555 C157.5512793 196.89674805 157.5512793 196.89674805 157.7722168 198.12768555 C158.7622168 198.78768555 159.7522168 199.44768555 160.7722168 200.12768555 C159.7822168 203.09768555 159.7822168 203.09768555 158.7722168 206.12768555 C159.7622168 206.45768555 160.7522168 206.78768555 161.7722168 207.12768555 C161.4422168 207.78768555 161.1122168 208.44768555 160.7722168 209.12768555 C162.39063477 208.62108398 162.39063477 208.62108398 164.04174805 208.10424805 C165.55580992 207.65285072 167.0701489 207.2023821 168.5847168 206.75268555 C169.2840332 206.5309668 169.98334961 206.30924805 170.70385742 206.08081055 C187.96455476 201.04335381 206.56538031 201.85345464 224.34643555 201.93237305 C226.85276678 201.93611269 229.3590995 201.93895515 231.86543274 201.94094849 C238.39678124 201.94851013 244.92803787 201.96809266 251.45935059 201.99035645 C258.15020967 202.01209197 264.84109779 202.01998468 271.53198242 202.0300293 C284.61209927 202.05134706 297.6921531 202.08499475 310.7722168 202.12768555 C310.78126869 204.01236075 310.78766077 205.89704882 310.79296875 207.78173828 C310.79874687 209.35603859 310.79874687 209.35603859 310.80464172 210.96214294 C310.75582475 215.72798889 310.39046918 220.4456846 309.9597168 225.19018555 C309.87351074 226.16737549 309.78730469 227.14456543 309.69848633 228.15136719 C308.82035181 237.54984159 307.39906082 246.83298336 305.7722168 256.12768555 C305.1122168 256.12768555 304.4522168 256.12768555 303.7722168 256.12768555 C303.6897168 257.13831055 303.6072168 258.14893555 303.5222168 259.19018555 C302.39899993 268.06518079 300.11494282 277.42327871 295.7565918 285.26831055 C294.65010792 287.35833564 293.84770372 289.47440486 293.0222168 291.69018555 C288.73232352 302.60838452 282.79897256 312.75867786 275.7722168 322.12768555 C275.00071289 323.18729492 275.00071289 323.18729492 274.21362305 324.26831055 C271.77038722 327.5936497 269.2521403 330.71426283 266.4597168 333.75268555 C263.83057022 336.73879198 262.96988466 339.07549438 262.7722168 343.12768555 C263.7622168 342.79768555 264.7522168 342.46768555 265.7722168 342.12768555 C266.1022168 342.78768555 266.4322168 343.44768555 266.7722168 344.12768555 C266.1122168 344.12768555 265.4522168 344.12768555 264.7722168 344.12768555 C264.7722168 344.78768555 264.7722168 345.44768555 264.7722168 346.12768555 C265.4322168 346.12768555 266.0922168 346.12768555 266.7722168 346.12768555 C266.7722168 346.78768555 266.7722168 347.44768555 266.7722168 348.12768555 C265.85520996 348.57571533 264.93820312 349.02374512 263.9934082 349.48535156 C260.54128276 351.17478499 257.09474508 352.87536729 253.6496582 354.57910156 C252.16739962 355.31026987 250.68370823 356.03854188 249.19848633 356.76367188 C241.34814866 360.59885033 233.79931678 364.41363163 226.76586914 369.6550293 C219.35709743 375.12768555 219.35709743 375.12768555 215.7722168 375.12768555 C215.7722168 375.78768555 215.7722168 376.44768555 215.7722168 377.12768555 C193.93976626 387.76876296 193.93976626 387.76876296 183.7722168 391.12768555 C182.499515 391.62291024 181.22860643 392.12277321 179.9597168 392.62768555 C175.09087176 394.47623045 170.05968689 395.78525991 165.04174805 397.1628418 C161.89159758 398.02703606 161.89159758 398.02703606 159.43945312 399.10742188 C144.17534865 404.94620381 125.9653595 406.02508878 109.7722168 405.12768555 C109.7722168 406.11768555 109.7722168 407.10768555 109.7722168 408.12768555 C108.7822168 407.79768555 107.7922168 407.46768555 106.7722168 407.12768555 C106.7722168 406.46768555 106.7722168 405.80768555 106.7722168 405.12768555 C105.83021486 405.13045093 105.83021486 405.13045093 104.86918259 405.13327217 C89.54319291 405.17756446 74.21722307 405.21059697 58.89118576 405.23130989 C51.47943565 405.24159438 44.06772843 405.25560022 36.65600586 405.27856445 C30.19112532 405.29858536 23.72627586 405.3114225 17.26136518 405.31586254 C13.84262824 405.31845528 10.42398018 405.3244894 7.00527191 405.33914566 C3.17590656 405.35375082 -0.65327711 405.3556597 -4.48266602 405.35473633 C-5.59901428 405.36192688 -6.71536255 405.36911743 -7.86553955 405.37652588 C-18.21775783 405.34967149 -29.20328728 404.71978772 -38.2277832 399.12768555 C-40.4777832 396.69018555 -40.4777832 396.69018555 -42.2277832 394.12768555 C-43.4343457 392.98299805 -43.4343457 392.98299805 -44.6652832 391.81518555 C-55.56407417 380.38474624 -57.43506582 364.0776661 -57.31007385 348.8515625 C-57.30523016 347.49986245 -57.30523016 347.49986245 -57.30028862 346.12085533 C-57.28828158 343.11918122 -57.26889502 340.11760164 -57.24951172 337.1159668 C-57.23936171 334.9571808 -57.22966882 332.79839261 -57.22039795 330.63960266 C-57.19398931 324.79105911 -57.16119517 318.94256681 -57.12724805 313.09406281 C-57.09283324 306.97752155 -57.06430008 300.86095292 -57.03514099 294.74438477 C-56.97905698 283.16714762 -56.91768921 271.58994477 -56.85441965 260.0127449 C-56.78263462 246.83024258 -56.7167452 233.64771286 -56.65134919 220.46517754 C-56.51671715 193.35264464 -56.37468726 166.24015453 -56.2277832 139.12768555 C-56.99864258 139.01811523 -57.76950195 138.90854492 -58.5637207 138.7956543 C-59.56661133 138.63709961 -60.56950195 138.47854492 -61.6027832 138.31518555 C-63.09938477 138.08895508 -63.09938477 138.08895508 -64.6262207 137.8581543 C-67.2277832 137.12768555 -67.2277832 137.12768555 -69.2277832 134.12768555 C-68.2377832 134.12768555 -67.2477832 134.12768555 -66.2277832 134.12768555 C-66.2277832 133.46768555 -66.2277832 132.80768555 -66.2277832 132.12768555 C-66.8877832 132.12768555 -67.5477832 132.12768555 -68.2277832 132.12768555 C-67.7327832 131.13768555 -67.7327832 131.13768555 -67.2277832 130.12768555 C-66.5677832 130.45768555 -65.9077832 130.78768555 -65.2277832 131.12768555 C-65.2277832 129.80768555 -65.2277832 128.48768555 -65.2277832 127.12768555 C-62.4152832 126.00268555 -62.4152832 126.00268555 -59.2277832 125.12768555 C-58.2377832 125.78768555 -57.2477832 126.44768555 -56.2277832 127.12768555 C-56.2277832 125.14768555 -56.2277832 123.16768555 -56.2277832 121.12768555 C-56.8877832 120.79768555 -57.5477832 120.46768555 -58.2277832 120.12768555 C-57.5677832 120.12768555 -56.9077832 120.12768555 -56.2277832 120.12768555 C-56.24110687 118.56699593 -56.24110687 118.56699593 -56.25469971 116.97477722 C-56.33605292 107.13316483 -56.39587639 97.29162134 -56.43503189 87.44974804 C-56.45583942 82.39083445 -56.48403127 77.33219396 -56.52954102 72.2734375 C-56.5732437 67.38453325 -56.59697162 62.49589044 -56.60729218 57.6068058 C-56.61463993 55.74861859 -56.62898763 53.89044446 -56.65070343 52.03236961 C-56.82174244 36.78067615 -55.28124467 25.56023685 -44.2277832 14.12768555 C-37.4014359 8.12768555 -37.4014359 8.12768555 -34.2277832 8.12768555 C-34.2277832 7.46768555 -34.2277832 6.80768555 -34.2277832 6.12768555 C-32.60662628 5.49278379 -30.98055614 4.87042763 -29.3527832 4.25268555 C-28.44786133 3.90463867 -27.54293945 3.5565918 -26.6105957 3.19799805 C-17.69442383 0.37694598 -9.31666494 -0.12891278 0 0 Z M-62.2277832 127.12768555 C-62.5577832 128.11768555 -62.8877832 129.10768555 -63.2277832 130.12768555 C-62.2377832 129.79768555 -61.2477832 129.46768555 -60.2277832 129.12768555 C-60.2277832 128.46768555 -60.2277832 127.80768555 -60.2277832 127.12768555 C-60.8877832 127.12768555 -61.5477832 127.12768555 -62.2277832 127.12768555 Z M260.7722168 340.12768555 C260.4422168 340.78768555 260.1122168 341.44768555 259.7722168 342.12768555 C260.4322168 342.12768555 261.0922168 342.12768555 261.7722168 342.12768555 C261.4422168 341.46768555 261.1122168 340.80768555 260.7722168 340.12768555 Z " fill="#F275B2" transform="translate(134.227783203125,12.872314453125)"/>
<path d="M0 0 C-0.0928125 1.175625 -0.0928125 1.175625 -0.1875 2.375 C-0.125625 3.24125 -0.06375 4.1075 0 5 C0.99 5.66 1.98 6.32 3 7 C2.34 8.98 1.68 10.96 1 13 C1.99 13.33 2.98 13.66 4 14 C3.67 14.66 3.34 15.32 3 16 C4.07894531 15.66226563 5.15789062 15.32453125 6.26953125 14.9765625 C7.78359313 14.52516517 9.2979321 14.07469656 10.8125 13.625 C11.51181641 13.40328125 12.21113281 13.1815625 12.93164062 12.953125 C30.19233796 7.91566827 48.79316351 8.72576909 66.57421875 8.8046875 C69.08054999 8.80842714 71.58688271 8.81126961 74.09321594 8.81326294 C80.62456444 8.82082458 87.15582108 8.84040711 93.68713379 8.8626709 C100.37799288 8.88440642 107.068881 8.89229913 113.75976562 8.90234375 C126.83988247 8.92366151 139.9199363 8.95730921 153 9 C153.00905189 10.8846752 153.01544397 12.76936327 153.02075195 14.65405273 C153.02460403 15.70358627 153.02845612 16.75311981 153.03242493 17.8344574 C152.98360795 22.60030334 152.61825238 27.31799905 152.1875 32.0625 C152.10129395 33.03968994 152.01508789 34.01687988 151.92626953 35.02368164 C151.04813501 44.42215605 149.62684402 53.70529781 148 63 C147.34 63 146.68 63 146 63 C145.9175 64.010625 145.835 65.02125 145.75 66.0625 C144.62678313 74.93749525 142.34272602 84.29559316 137.984375 92.140625 C136.87789113 94.23065009 136.07548692 96.34671931 135.25 98.5625 C130.96010672 109.48069898 125.02675577 119.63099231 118 129 C117.48566406 129.70640625 116.97132813 130.4128125 116.44140625 131.140625 C113.99817042 134.46596416 111.47992351 137.58657728 108.6875 140.625 C106.05835342 143.61110643 105.19766786 145.94780884 105 150 C105.99 149.67 106.98 149.34 108 149 C108.33 149.66 108.66 150.32 109 151 C108.34 151 107.68 151 107 151 C107 151.66 107 152.32 107 153 C107.66 153 108.32 153 109 153 C109 153.66 109 154.32 109 155 C108.08299316 155.44802979 107.16598633 155.89605957 106.22119141 156.35766602 C102.76906596 158.04709944 99.32252828 159.74768174 95.87744141 161.45141602 C94.39518282 162.18258433 92.91149144 162.91085634 91.42626953 163.63598633 C83.57593186 167.47116478 76.02709998 171.28594608 68.99365234 176.52734375 C61.58488064 182 61.58488064 182 58 182 C58 182.66 58 183.32 58 184 C36.16754946 194.64107741 36.16754946 194.64107741 26 198 C24.7272982 198.49522469 23.45638963 198.99508767 22.1875 199.5 C17.31865496 201.3485449 12.2874701 202.65757436 7.26953125 204.03515625 C4.11938079 204.89935051 4.11938079 204.89935051 1.66723633 205.97973633 C-13.59686815 211.81851826 -31.80685729 212.89740323 -48 212 C-48 212.99 -48 213.98 -48 215 C-48.99 214.67 -49.98 214.34 -51 214 C-50.80664062 212.89140625 -50.61328125 211.7828125 -50.4140625 210.640625 C-49.77615187 205.51479895 -50.52988554 200.81327345 -51.375 195.75 C-53.29919376 183.79505546 -54.15788811 172.02436336 -54.203125 159.9140625 C-54.20882507 158.69584808 -54.21452515 157.47763367 -54.22039795 156.22250366 C-54.22978819 153.65599418 -54.23635794 151.08947296 -54.24023438 148.52294922 C-54.2498872 144.6700233 -54.28094796 140.81764381 -54.3125 136.96484375 C-54.39613162 117.77683127 -53.38761221 99.09858168 -47.8125 80.625 C-47.53986328 79.67496094 -47.26722656 78.72492188 -46.98632812 77.74609375 C-46.33772057 75.49303594 -45.67622252 73.24488815 -45 71 C-44.34 71 -43.68 71 -43 71 C-42.731875 69.72125 -42.46375 68.4425 -42.1875 67.125 C-41.0548104 61.99937583 -39.56798699 57.00710512 -38 52 C-37.34 52 -36.68 52 -36 52 C-35.7525 50.2365625 -35.7525 50.2365625 -35.5 48.4375 C-32.83656739 36.46149803 -13.37890855 0 0 0 Z M103 147 C102.67 147.66 102.34 148.32 102 149 C102.66 149 103.32 149 104 149 C103.67 148.34 103.34 147.68 103 147 Z " fill="#EC8388" transform="translate(292,206)"/>
<path d="M0 0 C30.7828125 -0.061875 30.7828125 -0.061875 62.1875 -0.125 C68.62660889 -0.14320801 75.06571777 -0.16141602 81.69995117 -0.18017578 C89.66662598 -0.18920898 89.66662598 -0.18920898 93.41621399 -0.19088745 C96.66020354 -0.19471361 99.90408041 -0.20608972 103.14804161 -0.2193644 C161.66398259 -0.42242339 161.66398259 -0.42242339 179.18359375 16 C189.20927298 27.03902745 190.68886677 40.24339226 190.28515625 54.55859375 C189.78619845 64.5273114 186.21204591 73.23154734 178.9375 80.1875 C172.1665044 85.61316678 163.37725274 88.22788884 155 90 C155.88300781 90.20753906 156.76601563 90.41507812 157.67578125 90.62890625 C170.12574297 93.82497591 181.86235869 99.38969373 188.6875 110.828125 C197.42171626 127.54071188 198.11074777 146.77577335 193.22265625 164.87890625 C188.71156257 178.48963094 180.84260067 187.92642328 168.25 194.75 C145.91620303 205.19360806 119.99833381 203.14590672 95.99609375 203.09765625 C93.53129092 203.09618266 91.06648778 203.09516452 88.60168457 203.09460449 C79.54695155 203.0893999 70.49222527 203.07543876 61.4375 203.0625 C41.163125 203.041875 20.88875 203.02125 0 203 C0 136.01 0 69.02 0 0 Z M49 42 C49 54.54 49 67.08 49 80 C61.730449 80.08737841 61.730449 80.08737841 74.4609375 80.14648438 C79.65959963 80.16435983 84.85810199 80.18541787 90.05664062 80.22631836 C94.25175849 80.25911455 98.44670481 80.27689536 102.64194107 80.28463173 C104.23578717 80.29013912 105.82962477 80.30089293 107.42339706 80.31719017 C121.58564839 80.93975556 121.58564839 80.93975556 133.95529175 75.25505066 C138.86059335 69.89852465 139.35957548 65.20564184 139.2734375 58.08203125 C138.88451962 53.69837118 137.82281149 50.40542666 135 47 C129.60469716 42.79411619 124.32875805 41.85233424 117.68286133 41.88647461 C116.94115189 41.88632858 116.19944244 41.88618256 115.43525696 41.8860321 C112.98415195 41.88672866 110.53312298 41.89450903 108.08203125 41.90234375 C106.38238059 41.90420884 104.68272939 41.90563232 102.983078 41.90663147 C98.50980139 41.91044945 94.03655724 41.92027362 89.56329346 41.93133545 C84.19600343 41.94336359 78.82870254 41.94795524 73.46140289 41.95378876 C65.30757934 41.96348574 57.15382705 41.98264733 49 42 Z M49 118 C49 131.86 49 145.72 49 160 C61.93260853 160.05823664 61.93260853 160.05823664 74.86523438 160.09765625 C80.14514215 160.10958058 85.42498011 160.12363976 90.70483398 160.15087891 C94.96477584 160.17271703 99.22464276 160.18459163 103.48463631 160.18975449 C105.10441326 160.19343064 106.72418642 160.20060893 108.3439312 160.21146011 C124.11953571 160.65148242 124.11953571 160.65148242 138 154 C142.41241956 149.11056211 143.16683285 145.69532975 143.25 139.1875 C143.27578125 137.98480469 143.3015625 136.78210938 143.328125 135.54296875 C142.8245749 130.1058266 141.03858019 126.99342453 137.125 123.25 C130.36296869 118.38133746 123.71287895 117.87250362 115.52587891 117.88647461 C114.44191833 117.88625557 114.44191833 117.88625557 113.33605957 117.8860321 C110.96619584 117.88672439 108.59641237 117.89448454 106.2265625 117.90234375 C104.57604007 117.90421036 102.92551708 117.90563312 101.2749939 117.90663147 C96.94478813 117.9104375 92.61461626 117.92025134 88.28442383 117.93133545 C83.08142294 117.94339602 77.87841067 117.94796093 72.67539978 117.95378876 C64.78357633 117.9634642 56.89182715 117.98263412 49 118 Z " fill="#FFFFFF" transform="translate(489,115)"/>
<path d="M0 0 C1.10085938 0.3196875 2.20171875 0.639375 3.3359375 0.96875 C6.52169593 3.39777403 6.54364946 4.1874237 7.171875 8.0234375 C7.39322806 10.1378221 7.5841293 12.25554103 7.75 14.375 C7.85868408 15.48157959 7.96736816 16.58815918 8.0793457 17.72827148 C8.41072375 21.15039174 8.70532185 24.57455098 9 28 C9.20354667 30.10841223 9.41042237 32.2165065 9.62109375 34.32421875 C10.10706564 39.21400614 10.56254422 44.10564176 11 49 C6.0423999 48.23574522 1.5050758 46.45329104 -3.1875 44.75 C-35.940925 33.16334938 -74.79292349 25.64271769 -108.06640625 39.55859375 C-121.30694263 46.06426342 -129.33000407 55.60167819 -134.1953125 69.38671875 C-140.00328021 89.14599353 -138.77176978 111.02469691 -129.31298828 129.37255859 C-122.63783589 141.49268135 -112.6433619 147.76636671 -99.7265625 152.09765625 C-80.27410819 157.06473188 -59.27965574 154.97323459 -41.859375 144.94140625 C-37.25527973 141.81540168 -32.53201412 138.06402824 -30 133 C-29.67 127.72 -29.34 122.44 -29 117 C-46.16 117 -63.32 117 -81 117 C-81 103.47 -81 89.94 -81 76 C-48.66 76 -16.32 76 17 76 C17 115.27 17 154.54 17 195 C1.82 195 -13.36 195 -29 195 C-29 184.11 -29 173.22 -29 162 C-31.475 167.94 -31.475 167.94 -34 174 C-43.88888524 188.62730941 -56.48550411 196.35292467 -73.6875 199.75 C-99.85156676 204.33117548 -128.78265955 200.88326679 -151.140625 185.89453125 C-172.45727605 170.33551836 -184.17278016 148.82876072 -189 123 C-193.91106514 89.72502803 -191.93222129 52.69123055 -171.625 24.5625 C-152.88461561 1.19288949 -126.73865311 -10.20829009 -97.3359375 -13.49609375 C-64.25008162 -16.51308961 -30.7368419 -12.99039738 0 0 Z " fill="#FFFFFF" transform="translate(1327,123)"/>
<path d="M0 0 C1.44454746 1.24184897 2.88230927 2.49164364 4.3125 3.75 C5.5190625 4.66265625 5.5190625 4.66265625 6.75 5.59375 C24.53818175 20.56185415 32.99630311 45.30968204 35.3125 67.75 C35.62597877 73.31638128 35.64267475 78.88574632 35.62817383 84.45947266 C35.62502181 86.98253996 35.64853505 89.50442095 35.67382812 92.02734375 C35.77300459 117.38897913 29.69158768 143.42833965 12.3125 162.75 C11.51199219 163.64332031 10.71148438 164.53664063 9.88671875 165.45703125 C3.38281133 172.33743114 -3.32710111 177.25281861 -11.6875 181.75 C-12.69296875 182.29398438 -13.6984375 182.83796875 -14.734375 183.3984375 C-46.21754655 199.14002327 -88.58723125 199.15469964 -121.6171875 188.2578125 C-132.91240614 184.23508162 -142.67547271 178.67925136 -151.6875 170.75 C-152.491875 170.1415625 -153.29625 169.533125 -154.125 168.90625 C-173.50562692 152.5981615 -181.11511592 125.73061361 -183.3125 101.5 C-185.50309448 67.96398992 -180.32593744 35.70269228 -158.12109375 9.37890625 C-142.16572562 -7.85698902 -120.43172966 -15.9840414 -97.6875 -19.25 C-97.03885986 -19.3442627 -96.39021973 -19.43852539 -95.72192383 -19.53564453 C-64.169026 -23.61994924 -25.80344023 -20.49770326 0 0 Z M-111.6875 36.75 C-112.40421875 37.30042969 -113.1209375 37.85085937 -113.859375 38.41796875 C-124.14747976 47.4499677 -129.62310167 62.42175529 -130.6875 75.75 C-131.91014321 96.66181271 -130.5047516 116.65102042 -116.3125 133.25 C-106.31571379 143.53337199 -94.04426238 148.52417439 -79.7109375 148.953125 C-61.5356898 149.20676297 -45.44127992 147.03998094 -31.65234375 133.94921875 C-28.32564671 130.225699 -25.96266736 126.17471198 -23.6875 121.75 C-23.30851562 121.07710938 -22.92953125 120.40421875 -22.5390625 119.7109375 C-13.29491987 101.70918606 -15.24512216 77.69534655 -20.49609375 58.84765625 C-24.98928806 46.20680292 -34.17715185 36.21692422 -46.125 30.4375 C-66.38154136 21.18388599 -94.04166297 23.00332373 -111.6875 36.75 Z " fill="#FFFFFF" transform="translate(1075.6875,129.25)"/>
<path d="M0 0 C55.11 0 110.22 0 167 0 C167 14.85 167 29.7 167 45 C128.06 45 89.12 45 49 45 C49 60.18 49 75.36 49 91 C86.95 91 124.9 91 164 91 C164 105.85 164 120.7 164 136 C126.05 136 88.1 136 49 136 C49 158.11 49 180.22 49 203 C32.83 203 16.66 203 0 203 C0 136.01 0 69.02 0 0 Z " fill="#FFFFFF" transform="translate(1476,115)"/>
<path d="M0 0 C13.94032323 -1.12917194 27.89131672 -1.80805457 41.87890625 -1.49609375 C43.04688751 -1.50632568 44.21486877 -1.51655762 45.41824341 -1.52709961 C52.19938508 -1.27216717 55.69491104 -0.06589365 60.453125 4.8972168 C64.53335715 9.72886215 66.22250097 14.52636694 67.90185547 20.55273438 C69.76672143 26.40687119 72.99277425 31.43552242 76.125 36.6875 C77.29962366 38.77882816 78.46769184 40.87385294 79.62890625 42.97265625 C83.20919878 49.38858133 86.85148695 55.76788587 90.50537109 62.14208984 C96.38351564 72.40165663 102.19093405 82.70121049 108 93 C110.75717382 90.54248541 112.32369527 87.87739118 114.08203125 84.64453125 C114.67701416 83.55962402 115.27199707 82.4747168 115.88500977 81.35693359 C116.19866486 80.77997742 116.51231995 80.20302124 116.83547974 79.60858154 C118.50842077 76.5331709 120.19921702 73.46762667 121.890625 70.40234375 C122.23525284 69.77732971 122.57988068 69.15231567 122.93495178 68.50836182 C126.21630858 62.57490202 129.62313038 56.71816173 133.0625 50.875 C138.50614502 41.61501645 143.80875128 32.28426116 149.03149414 22.89794922 C153.29808987 15.23057456 157.64552621 7.62032914 162 0 C180.15 0 198.3 0 217 0 C215.99186997 4.03252011 214.41543046 7.12885171 212.375 10.6875 C211.98530029 11.37392578 211.59560059 12.06035156 211.1940918 12.76757812 C206.87068175 20.32429711 202.36210796 27.77113218 197.8671875 35.2265625 C193.47763984 42.51338615 189.15051783 49.83322598 184.875 57.1875 C178.83295981 67.58035087 172.7343703 77.93837256 166.60888672 88.28222656 C163.90299631 92.85308727 161.20170567 97.426665 158.5 102 C155.1462471 107.67679798 151.79147649 113.3529874 148.43359375 119.02734375 C147.84835937 120.01669922 147.263125 121.00605469 146.66015625 122.02539062 C145.54469195 123.91105647 144.42883213 125.79648842 143.3125 127.68164062 C142.80589844 128.53822266 142.29929687 129.39480469 141.77734375 130.27734375 C141.33640381 131.02234131 140.89546387 131.76733887 140.44116211 132.53491211 C139.96557861 133.34839111 139.48999512 134.16187012 139 135 C138.29528564 135.96309082 137.59057129 136.92618164 136.86450195 137.91845703 C133.73578178 143.44900804 134.39646682 149.85490514 134.390625 156.02734375 C134.37562559 157.38499406 134.35889476 158.74262623 134.34051514 160.10023499 C134.29702577 163.65281055 134.27688401 167.20514007 134.26177979 170.75793457 C134.24214163 174.39150275 134.20039317 178.02481429 134.16015625 181.65820312 C134.08298365 188.77229862 134.04243797 195.8852737 134 203 C117.17 203 100.34 203 83 203 C83.03222656 198.71 83.06445312 194.42 83.09765625 190 C83.09813775 186.53284126 83.08955877 183.06596203 83.0749588 179.59884644 C83.06209239 175.96406629 83.06438374 172.33088632 83.10620117 168.69628906 C83.28345071 152.25276547 83.36091121 138.55941537 73 125 C71.52419239 122.65606912 70.14250012 120.27054155 68.75 117.875 C68.00129693 116.63333164 67.25158122 115.39227209 66.5 114.15234375 C63.5503111 109.26692151 60.6505201 104.35222241 57.75 99.4375 C57.19860352 98.50341309 56.64720703 97.56932617 56.07910156 96.60693359 C54.94908001 94.69230193 53.81919826 92.77758775 52.68945312 90.86279297 C49.96172198 86.2406289 47.23073618 81.62038912 44.5 77 C43.41665021 75.16667639 42.33331689 73.33334305 41.25 71.5 C40.71375 70.5925 40.1775 69.685 39.625 68.75 C34.75 60.5 34.75 60.5 33.12475586 57.74951172 C32.04232408 55.91775413 30.95980466 54.08604833 29.87719727 52.25439453 C27.15434617 47.64737471 24.43306446 43.03944106 21.71484375 38.4296875 C20.62242478 36.57810792 19.52997705 34.72654531 18.4375 32.875 C17.90809814 31.9768457 17.37869629 31.07869141 16.83325195 30.15332031 C14.08613068 25.50053833 11.31788352 20.86200029 8.515625 16.2421875 C7.95689697 15.31937988 7.39816895 14.39657227 6.82250977 13.44580078 C5.75397078 11.68399587 4.6816963 9.92444969 3.60522461 8.16748047 C3.13093018 7.38518066 2.65663574 6.60288086 2.16796875 5.796875 C1.74797607 5.10948242 1.3279834 4.42208984 0.89526367 3.71386719 C0 2 0 2 0 0 Z " fill="#FFFFFF" transform="translate(1656,115)"/>
<path d="M0 0 C16.5 0 33 0 50 0 C50 51.81 50 103.62 50 157 C86.63 157 123.26 157 161 157 C161 172.18 161 187.36 161 203 C107.87 203 54.74 203 0 203 C0 136.01 0 69.02 0 0 Z " fill="#FFFFFF" transform="translate(717,115)"/>
<path d="M0 0 C16.5 0 33 0 50 0 C50 66.99 50 133.98 50 203 C33.5 203 17 203 0 203 C0 136.01 0 69.02 0 0 Z " fill="#FFFFFF" transform="translate(1383,115)"/>
<path d="M0 0 C-0.0928125 1.175625 -0.0928125 1.175625 -0.1875 2.375 C-0.125625 3.24125 -0.06375 4.1075 0 5 C0.99 5.66 1.98 6.32 3 7 C2.34 8.98 1.68 10.96 1 13 C1.99 13.33 2.98 13.66 4 14 C4 15.32 4 16.64 4 18 C2.21046815 18.83790789 0.41830305 19.67019396 -1.375 20.5 C-2.37273437 20.9640625 -3.37046875 21.428125 -4.3984375 21.90625 C-7 23 -7 23 -9 23 C-9.33 23.99 -9.66 24.98 -10 26 C-11.6015625 27.359375 -11.6015625 27.359375 -13.625 28.75 C-22.35159547 35.05687758 -28.86232418 43.23189169 -35 52 C-36.1523964 48.5428108 -35.92499401 48.19498739 -34.4375 45.0625 C-34.06109375 44.2684375 -33.6846875 43.474375 -33.296875 42.65625 C-32.65492188 41.34140625 -32.65492188 41.34140625 -32 40 C-31.55140625 39.0409375 -31.1028125 38.081875 -30.640625 37.09375 C-26.34818716 28.13963235 -11.24482681 0 0 0 Z " fill="#030102" transform="translate(292,206)"/>
<path d="M0 0 C0.66 0.66 1.32 1.32 2 2 C1.67 2.66 1.34 3.32 1 4 C1.99 3.67 2.98 3.34 4 3 C4.33 3.66 4.66 4.32 5 5 C4.34 5 3.68 5 3 5 C3 5.66 3 6.32 3 7 C3.66 7 4.32 7 5 7 C5 7.66 5 8.32 5 9 C1.05408721 11.02228979 -2.89691409 13.03414462 -6.85302734 15.03637695 C-8.19888728 15.71938218 -9.54329906 16.40524867 -10.88623047 17.09399414 C-12.81366968 18.08189564 -14.74603477 19.0594849 -16.6796875 20.03515625 C-17.84226074 20.6269165 -19.00483398 21.21867676 -20.20263672 21.82836914 C-21.58733154 22.40832642 -21.58733154 22.40832642 -23 23 C-23.66 22.67 -24.32 22.34 -25 22 C-24.48953125 21.62230469 -23.9790625 21.24460937 -23.453125 20.85546875 C-18.0372143 16.75512501 -13.03284047 12.37229478 -8.16308594 7.64526367 C-5.57129836 5.18877121 -3.63127399 3.39676628 0 3 C0 2.01 0 1.02 0 0 Z " fill="#010000" transform="translate(396,352)"/>
<path d="M0 0 C0 3.96 0 7.92 0 12 C-8.3984375 10.73046875 -8.3984375 10.73046875 -11 10 C-11.66 9.01 -12.32 8.02 -13 7 C-12.01 7 -11.02 7 -10 7 C-10 6.34 -10 5.68 -10 5 C-10.66 5 -11.32 5 -12 5 C-11.67 4.34 -11.34 3.68 -11 3 C-10.34 3.33 -9.68 3.66 -9 4 C-9 2.68 -9 1.36 -9 0 C-5.07201633 -2.61865578 -4.9623968 -1.98495872 0 0 Z M-6 0 C-6.33 0.99 -6.66 1.98 -7 3 C-6.01 2.67 -5.02 2.34 -4 2 C-4 1.34 -4 0.68 -4 0 C-4.66 0 -5.32 0 -6 0 Z " fill="#000000" transform="translate(78,140)"/>
<path d="M0 0 C0.33 0.66 0.66 1.32 1 2 C0.34 2 -0.32 2 -1 2 C-1 2.66 -1 3.32 -1 4 C-4.36894537 5.65844033 -7.7461001 7.29944866 -11.125 8.9375 C-12.55199219 9.64036133 -12.55199219 9.64036133 -14.0078125 10.35742188 C-18.6564299 12.60102541 -22.77420755 14.58651137 -28 15 C-25.85526389 12.85526389 -24.1242971 11.99545242 -21.38671875 10.72265625 C-20.46826172 10.29146484 -19.54980469 9.86027344 -18.60351562 9.41601562 C-17.16008789 8.74602539 -17.16008789 8.74602539 -15.6875 8.0625 C-13.7944517 7.18078869 -11.90248835 6.29674353 -10.01171875 5.41015625 C-9.17084717 5.01965088 -8.32997559 4.62914551 -7.46362305 4.22680664 C-4.88722668 2.94384244 -2.44854445 1.51089708 0 0 Z " fill="#EB8973" transform="translate(351,386)"/>
<path d="" fill="#000000" transform="translate(0,0)"/>
</svg>
