<?xml version="1.0" encoding="UTF-8"?>
<svg version="1.1" xmlns="http://www.w3.org/2000/svg" width="450" height="432">
<path d="M0 0 C1.99311394 0.01385069 3.98622826 0.02767299 5.9793492 0.04047686 C8.10939725 0.05534404 10.23937865 0.07452604 12.36938858 0.09405899 C16.80939844 0.13166654 21.24914832 0.13968928 25.68930054 0.13998413 C26.8234486 0.1400601 26.8234486 0.1400601 27.98050874 0.14013761 C29.53583058 0.14010823 31.09115242 0.14000388 32.64647424 0.13982713 C49.36161275 0.14200464 66.07670693 0.19804319 82.79171276 0.25977612 C92.35823896 0.29451369 101.92461797 0.31980514 111.49121094 0.32324219 C119.93232617 0.32629786 128.37318978 0.34695904 136.81420785 0.38821012 C141.25056587 0.40931265 145.6865679 0.42225659 150.1229763 0.41383934 C185.33776121 0.35756697 185.33776121 0.35756697 200.7722168 6.12768555 C200.7722168 6.78768555 200.7722168 7.44768555 200.7722168 8.12768555 C201.59012695 8.27463867 201.59012695 8.27463867 202.42456055 8.42456055 C208.3347908 9.59650364 213.35638807 11.53407907 218.7722168 14.12768555 C220.07234756 14.73454984 221.3731883 15.33989436 222.67456055 15.9440918 C226.37752159 17.66403924 230.07572148 19.39388801 233.7722168 21.12768555 C233.7722168 21.78768555 233.7722168 22.44768555 233.7722168 23.12768555 C234.6384668 23.37518555 235.5047168 23.62268555 236.3972168 23.87768555 C240.01813262 25.21876548 242.59829421 26.93035453 245.7722168 29.12768555 C247.45656839 30.11225821 249.14432528 31.09101917 250.8347168 32.06518555 C254.7175036 34.36458703 257.66254712 36.83509413 260.7722168 40.12768555 C261.4322168 40.45768555 262.0922168 40.78768555 262.7722168 41.12768555 C266.78819099 43.13567264 269.47548153 46.76418484 272.2722168 50.19018555 C274.57698418 53.11119474 274.57698418 53.11119474 277.1081543 54.90112305 C280.25027465 57.52723537 282.48276812 60.40815975 284.8972168 63.69018555 C287.37284387 67.01704174 289.8227324 70.20414969 292.7722168 73.12768555 C296.7722168 79.13437451 296.7722168 79.13437451 296.7722168 82.12768555 C297.4322168 82.12768555 298.0922168 82.12768555 298.7722168 82.12768555 C299.61291095 83.72800692 300.44453184 85.33309726 301.2722168 86.94018555 C301.7362793 87.83350586 302.2003418 88.72682617 302.6784668 89.6472168 C303.7722168 92.12768555 303.7722168 92.12768555 303.7722168 95.12768555 C304.4322168 95.12768555 305.0922168 95.12768555 305.7722168 95.12768555 C306.61141078 97.39650642 307.44373404 99.66745581 308.2722168 101.94018555 C308.62993164 102.90408203 308.62993164 102.90408203 308.99487305 103.88745117 C310.04290426 106.77702293 310.7722168 109.02844615 310.7722168 112.12768555 C311.4322168 112.12768555 312.0922168 112.12768555 312.7722168 112.12768555 C313.59011949 115.95988637 314.40055293 119.79363084 315.2097168 123.62768555 C315.43981445 124.7053418 315.66991211 125.78299805 315.90698242 126.89331055 C316.1293457 127.9503418 316.35170898 129.00737305 316.58081055 130.09643555 C316.88716431 131.54179687 316.88716431 131.54179687 317.19970703 133.01635742 C318.66071185 140.95624887 318.89738322 148.56781975 318.8347168 156.62768555 C318.83020508 157.7362793 318.82569336 158.84487305 318.82104492 159.98706055 C318.80934837 162.70065954 318.79295765 165.41414315 318.7722168 168.12768555 C318.22613046 168.12915211 317.68004412 168.13061867 317.11740971 168.13212967 C303.7506278 168.16938983 290.38409863 168.22890124 277.01751804 168.31158829 C270.553173 168.35092242 264.08896133 168.38317961 257.62451172 168.39868164 C251.37382023 168.41394115 245.12349575 168.44855016 238.87296867 168.49599457 C236.50067288 168.51071305 234.12832466 168.51872102 231.75598335 168.5195694 C215.79025369 168.53101017 200.370684 168.95258828 185.77612305 176.1784668 C182.24053956 177.85321687 178.50124155 178.96401825 174.7722168 180.12768555 C174.7722168 180.78768555 174.7722168 181.44768555 174.7722168 182.12768555 C174.08514648 182.45381836 173.39807617 182.77995117 172.69018555 183.1159668 C171.78913086 183.55295898 170.88807617 183.98995117 169.9597168 184.44018555 C169.06639648 184.86944336 168.17307617 185.29870117 167.25268555 185.7409668 C164.96046483 187.02244452 163.53549059 188.22272011 161.7722168 190.12768555 C161.0503418 190.58143555 160.3284668 191.03518555 159.5847168 191.50268555 C157.51790272 193.01697974 157.51790272 193.01697974 157.3347168 195.69018555 C157.5512793 196.89674805 157.5512793 196.89674805 157.7722168 198.12768555 C158.7622168 198.78768555 159.7522168 199.44768555 160.7722168 200.12768555 C159.7822168 203.09768555 159.7822168 203.09768555 158.7722168 206.12768555 C159.7622168 206.45768555 160.7522168 206.78768555 161.7722168 207.12768555 C161.4422168 207.78768555 161.1122168 208.44768555 160.7722168 209.12768555 C162.39063477 208.62108398 162.39063477 208.62108398 164.04174805 208.10424805 C165.55580992 207.65285072 167.0701489 207.2023821 168.5847168 206.75268555 C169.2840332 206.5309668 169.98334961 206.30924805 170.70385742 206.08081055 C187.96455476 201.04335381 206.56538031 201.85345464 224.34643555 201.93237305 C226.85276678 201.93611269 229.3590995 201.93895515 231.86543274 201.94094849 C238.39678124 201.94851013 244.92803787 201.96809266 251.45935059 201.99035645 C258.15020967 202.01209197 264.84109779 202.01998468 271.53198242 202.0300293 C284.61209927 202.05134706 297.6921531 202.08499475 310.7722168 202.12768555 C310.78126869 204.01236075 310.78766077 205.89704882 310.79296875 207.78173828 C310.79874687 209.35603859 310.79874687 209.35603859 310.80464172 210.96214294 C310.75582475 215.72798889 310.39046918 220.4456846 309.9597168 225.19018555 C309.87351074 226.16737549 309.78730469 227.14456543 309.69848633 228.15136719 C308.82035181 237.54984159 307.39906082 246.83298336 305.7722168 256.12768555 C305.1122168 256.12768555 304.4522168 256.12768555 303.7722168 256.12768555 C303.6897168 257.13831055 303.6072168 258.14893555 303.5222168 259.19018555 C302.39899993 268.06518079 300.11494282 277.42327871 295.7565918 285.26831055 C294.65010792 287.35833564 293.84770372 289.47440486 293.0222168 291.69018555 C288.73232352 302.60838452 282.79897256 312.75867786 275.7722168 322.12768555 C275.00071289 323.18729492 275.00071289 323.18729492 274.21362305 324.26831055 C271.77038722 327.5936497 269.2521403 330.71426283 266.4597168 333.75268555 C263.83057022 336.73879198 262.96988466 339.07549438 262.7722168 343.12768555 C263.7622168 342.79768555 264.7522168 342.46768555 265.7722168 342.12768555 C266.1022168 342.78768555 266.4322168 343.44768555 266.7722168 344.12768555 C266.1122168 344.12768555 265.4522168 344.12768555 264.7722168 344.12768555 C264.7722168 344.78768555 264.7722168 345.44768555 264.7722168 346.12768555 C265.4322168 346.12768555 266.0922168 346.12768555 266.7722168 346.12768555 C266.7722168 346.78768555 266.7722168 347.44768555 266.7722168 348.12768555 C265.85520996 348.57571533 264.93820312 349.02374512 263.9934082 349.48535156 C260.54128276 351.17478499 257.09474508 352.87536729 253.6496582 354.57910156 C252.16739962 355.31026987 250.68370823 356.03854188 249.19848633 356.76367188 C241.34814866 360.59885033 233.79931678 364.41363163 226.76586914 369.6550293 C219.35709743 375.12768555 219.35709743 375.12768555 215.7722168 375.12768555 C215.7722168 375.78768555 215.7722168 376.44768555 215.7722168 377.12768555 C193.93976626 387.76876296 193.93976626 387.76876296 183.7722168 391.12768555 C182.499515 391.62291024 181.22860643 392.12277321 179.9597168 392.62768555 C175.09087176 394.47623045 170.05968689 395.78525991 165.04174805 397.1628418 C161.89159758 398.02703606 161.89159758 398.02703606 159.43945312 399.10742188 C144.17534865 404.94620381 125.9653595 406.02508878 109.7722168 405.12768555 C109.7722168 406.11768555 109.7722168 407.10768555 109.7722168 408.12768555 C108.7822168 407.79768555 107.7922168 407.46768555 106.7722168 407.12768555 C106.7722168 406.46768555 106.7722168 405.80768555 106.7722168 405.12768555 C105.83021486 405.13045093 105.83021486 405.13045093 104.86918259 405.13327217 C89.54319291 405.17756446 74.21722307 405.21059697 58.89118576 405.23130989 C51.47943565 405.24159438 44.06772843 405.25560022 36.65600586 405.27856445 C30.19112532 405.29858536 23.72627586 405.3114225 17.26136518 405.31586254 C13.84262824 405.31845528 10.42398018 405.3244894 7.00527191 405.33914566 C3.17590656 405.35375082 -0.65327711 405.3556597 -4.48266602 405.35473633 C-5.59901428 405.36192688 -6.71536255 405.36911743 -7.86553955 405.37652588 C-18.21775783 405.34967149 -29.20328728 404.71978772 -38.2277832 399.12768555 C-40.4777832 396.69018555 -40.4777832 396.69018555 -42.2277832 394.12768555 C-43.4343457 392.98299805 -43.4343457 392.98299805 -44.6652832 391.81518555 C-55.56407417 380.38474624 -57.43506582 364.0776661 -57.31007385 348.8515625 C-57.30523016 347.49986245 -57.30523016 347.49986245 -57.30028862 346.12085533 C-57.28828158 343.11918122 -57.26889502 340.11760164 -57.24951172 337.1159668 C-57.23936171 334.9571808 -57.22966882 332.79839261 -57.22039795 330.63960266 C-57.19398931 324.79105911 -57.16119517 318.94256681 -57.12724805 313.09406281 C-57.09283324 306.97752155 -57.06430008 300.86095292 -57.03514099 294.74438477 C-56.97905698 283.16714762 -56.91768921 271.58994477 -56.85441965 260.0127449 C-56.78263462 246.83024258 -56.7167452 233.64771286 -56.65134919 220.46517754 C-56.51671715 193.35264464 -56.37468726 166.24015453 -56.2277832 139.12768555 C-56.99864258 139.01811523 -57.76950195 138.90854492 -58.5637207 138.7956543 C-59.56661133 138.63709961 -60.56950195 138.47854492 -61.6027832 138.31518555 C-63.09938477 138.08895508 -63.09938477 138.08895508 -64.6262207 137.8581543 C-67.2277832 137.12768555 -67.2277832 137.12768555 -69.2277832 134.12768555 C-68.2377832 134.12768555 -67.2477832 134.12768555 -66.2277832 134.12768555 C-66.2277832 133.46768555 -66.2277832 132.80768555 -66.2277832 132.12768555 C-66.8877832 132.12768555 -67.5477832 132.12768555 -68.2277832 132.12768555 C-67.7327832 131.13768555 -67.7327832 131.13768555 -67.2277832 130.12768555 C-66.5677832 130.45768555 -65.9077832 130.78768555 -65.2277832 131.12768555 C-65.2277832 129.80768555 -65.2277832 128.48768555 -65.2277832 127.12768555 C-62.4152832 126.00268555 -62.4152832 126.00268555 -59.2277832 125.12768555 C-58.2377832 125.78768555 -57.2477832 126.44768555 -56.2277832 127.12768555 C-56.2277832 125.14768555 -56.2277832 123.16768555 -56.2277832 121.12768555 C-56.8877832 120.79768555 -57.5477832 120.46768555 -58.2277832 120.12768555 C-57.5677832 120.12768555 -56.9077832 120.12768555 -56.2277832 120.12768555 C-56.24110687 118.56699593 -56.24110687 118.56699593 -56.25469971 116.97477722 C-56.33605292 107.13316483 -56.39587639 97.29162134 -56.43503189 87.44974804 C-56.45583942 82.39083445 -56.48403127 77.33219396 -56.52954102 72.2734375 C-56.5732437 67.38453325 -56.59697162 62.49589044 -56.60729218 57.6068058 C-56.61463993 55.74861859 -56.62898763 53.89044446 -56.65070343 52.03236961 C-56.82174244 36.78067615 -55.28124467 25.56023685 -44.2277832 14.12768555 C-37.4014359 8.12768555 -37.4014359 8.12768555 -34.2277832 8.12768555 C-34.2277832 7.46768555 -34.2277832 6.80768555 -34.2277832 6.12768555 C-32.60662628 5.49278379 -30.98055614 4.87042763 -29.3527832 4.25268555 C-28.44786133 3.90463867 -27.54293945 3.5565918 -26.6105957 3.19799805 C-17.69442383 0.37694598 -9.31666494 -0.12891278 0 0 Z M-62.2277832 127.12768555 C-62.5577832 128.11768555 -62.8877832 129.10768555 -63.2277832 130.12768555 C-62.2377832 129.79768555 -61.2477832 129.46768555 -60.2277832 129.12768555 C-60.2277832 128.46768555 -60.2277832 127.80768555 -60.2277832 127.12768555 C-60.8877832 127.12768555 -61.5477832 127.12768555 -62.2277832 127.12768555 Z M260.7722168 340.12768555 C260.4422168 340.78768555 260.1122168 341.44768555 259.7722168 342.12768555 C260.4322168 342.12768555 261.0922168 342.12768555 261.7722168 342.12768555 C261.4422168 341.46768555 261.1122168 340.80768555 260.7722168 340.12768555 Z " fill="#F275B2" transform="translate(100.227783203125,11.872314453125)"/>
<path d="M0 0 C-0.0928125 1.175625 -0.0928125 1.175625 -0.1875 2.375 C-0.125625 3.24125 -0.06375 4.1075 0 5 C0.99 5.66 1.98 6.32 3 7 C2.34 8.98 1.68 10.96 1 13 C1.99 13.33 2.98 13.66 4 14 C3.67 14.66 3.34 15.32 3 16 C4.07894531 15.66226563 5.15789062 15.32453125 6.26953125 14.9765625 C7.78359313 14.52516517 9.2979321 14.07469656 10.8125 13.625 C11.51181641 13.40328125 12.21113281 13.1815625 12.93164062 12.953125 C30.19233796 7.91566827 48.79316351 8.72576909 66.57421875 8.8046875 C69.08054999 8.80842714 71.58688271 8.81126961 74.09321594 8.81326294 C80.62456444 8.82082458 87.15582108 8.84040711 93.68713379 8.8626709 C100.37799288 8.88440642 107.068881 8.89229913 113.75976562 8.90234375 C126.83988247 8.92366151 139.9199363 8.95730921 153 9 C153.00905189 10.8846752 153.01544397 12.76936327 153.02075195 14.65405273 C153.02460403 15.70358627 153.02845612 16.75311981 153.03242493 17.8344574 C152.98360795 22.60030334 152.61825238 27.31799905 152.1875 32.0625 C152.10129395 33.03968994 152.01508789 34.01687988 151.92626953 35.02368164 C151.04813501 44.42215605 149.62684402 53.70529781 148 63 C147.34 63 146.68 63 146 63 C145.9175 64.010625 145.835 65.02125 145.75 66.0625 C144.62678313 74.93749525 142.34272602 84.29559316 137.984375 92.140625 C136.87789113 94.23065009 136.07548692 96.34671931 135.25 98.5625 C130.96010672 109.48069898 125.02675577 119.63099231 118 129 C117.48566406 129.70640625 116.97132813 130.4128125 116.44140625 131.140625 C113.99817042 134.46596416 111.47992351 137.58657728 108.6875 140.625 C106.05835342 143.61110643 105.19766786 145.94780884 105 150 C105.99 149.67 106.98 149.34 108 149 C108.33 149.66 108.66 150.32 109 151 C108.34 151 107.68 151 107 151 C107 151.66 107 152.32 107 153 C107.66 153 108.32 153 109 153 C109 153.66 109 154.32 109 155 C108.08299316 155.44802979 107.16598633 155.89605957 106.22119141 156.35766602 C102.76906596 158.04709944 99.32252828 159.74768174 95.87744141 161.45141602 C94.39518282 162.18258433 92.91149144 162.91085634 91.42626953 163.63598633 C83.57593186 167.47116478 76.02709998 171.28594608 68.99365234 176.52734375 C61.58488064 182 61.58488064 182 58 182 C58 182.66 58 183.32 58 184 C36.16754946 194.64107741 36.16754946 194.64107741 26 198 C24.7272982 198.49522469 23.45638963 198.99508767 22.1875 199.5 C17.31865496 201.3485449 12.2874701 202.65757436 7.26953125 204.03515625 C4.11938079 204.89935051 4.11938079 204.89935051 1.66723633 205.97973633 C-13.59686815 211.81851826 -31.80685729 212.89740323 -48 212 C-48 212.99 -48 213.98 -48 215 C-48.99 214.67 -49.98 214.34 -51 214 C-50.80664062 212.89140625 -50.61328125 211.7828125 -50.4140625 210.640625 C-49.77615187 205.51479895 -50.52988554 200.81327345 -51.375 195.75 C-53.29919376 183.79505546 -54.15788811 172.02436336 -54.203125 159.9140625 C-54.20882507 158.69584808 -54.21452515 157.47763367 -54.22039795 156.22250366 C-54.22978819 153.65599418 -54.23635794 151.08947296 -54.24023438 148.52294922 C-54.2498872 144.6700233 -54.28094796 140.81764381 -54.3125 136.96484375 C-54.39613162 117.77683127 -53.38761221 99.09858168 -47.8125 80.625 C-47.53986328 79.67496094 -47.26722656 78.72492188 -46.98632812 77.74609375 C-46.33772057 75.49303594 -45.67622252 73.24488815 -45 71 C-44.34 71 -43.68 71 -43 71 C-42.731875 69.72125 -42.46375 68.4425 -42.1875 67.125 C-41.0548104 61.99937583 -39.56798699 57.00710512 -38 52 C-37.34 52 -36.68 52 -36 52 C-35.7525 50.2365625 -35.7525 50.2365625 -35.5 48.4375 C-32.83656739 36.46149803 -13.37890855 0 0 0 Z M103 147 C102.67 147.66 102.34 148.32 102 149 C102.66 149 103.32 149 104 149 C103.67 148.34 103.34 147.68 103 147 Z " fill="#EC8388" transform="translate(258,205)"/>
<path d="M0 0 C-0.0928125 1.175625 -0.0928125 1.175625 -0.1875 2.375 C-0.125625 3.24125 -0.06375 4.1075 0 5 C0.99 5.66 1.98 6.32 3 7 C2.34 8.98 1.68 10.96 1 13 C1.99 13.33 2.98 13.66 4 14 C4 15.32 4 16.64 4 18 C2.21046815 18.83790789 0.41830305 19.67019396 -1.375 20.5 C-2.37273437 20.9640625 -3.37046875 21.428125 -4.3984375 21.90625 C-7 23 -7 23 -9 23 C-9.33 23.99 -9.66 24.98 -10 26 C-11.6015625 27.359375 -11.6015625 27.359375 -13.625 28.75 C-22.35159547 35.05687758 -28.86232418 43.23189169 -35 52 C-36.1523964 48.5428108 -35.92499401 48.19498739 -34.4375 45.0625 C-34.06109375 44.2684375 -33.6846875 43.474375 -33.296875 42.65625 C-32.65492188 41.34140625 -32.65492188 41.34140625 -32 40 C-31.55140625 39.0409375 -31.1028125 38.081875 -30.640625 37.09375 C-26.34818716 28.13963235 -11.24482681 0 0 0 Z " fill="#030102" transform="translate(258,205)"/>
<path d="M0 0 C0.66 0.66 1.32 1.32 2 2 C1.67 2.66 1.34 3.32 1 4 C1.99 3.67 2.98 3.34 4 3 C4.33 3.66 4.66 4.32 5 5 C4.34 5 3.68 5 3 5 C3 5.66 3 6.32 3 7 C3.66 7 4.32 7 5 7 C5 7.66 5 8.32 5 9 C1.05408721 11.02228979 -2.89691409 13.03414462 -6.85302734 15.03637695 C-8.19888728 15.71938218 -9.54329906 16.40524867 -10.88623047 17.09399414 C-12.81366968 18.08189564 -14.74603477 19.0594849 -16.6796875 20.03515625 C-17.84226074 20.6269165 -19.00483398 21.21867676 -20.20263672 21.82836914 C-21.58733154 22.40832642 -21.58733154 22.40832642 -23 23 C-23.66 22.67 -24.32 22.34 -25 22 C-24.48953125 21.62230469 -23.9790625 21.24460937 -23.453125 20.85546875 C-18.0372143 16.75512501 -13.03284047 12.37229478 -8.16308594 7.64526367 C-5.57129836 5.18877121 -3.63127399 3.39676628 0 3 C0 2.01 0 1.02 0 0 Z " fill="#010000" transform="translate(362,351)"/>
<path d="M0 0 C0 3.96 0 7.92 0 12 C-8.3984375 10.73046875 -8.3984375 10.73046875 -11 10 C-11.66 9.01 -12.32 8.02 -13 7 C-12.01 7 -11.02 7 -10 7 C-10 6.34 -10 5.68 -10 5 C-10.66 5 -11.32 5 -12 5 C-11.67 4.34 -11.34 3.68 -11 3 C-10.34 3.33 -9.68 3.66 -9 4 C-9 2.68 -9 1.36 -9 0 C-5.07201633 -2.61865578 -4.9623968 -1.98495872 0 0 Z M-6 0 C-6.33 0.99 -6.66 1.98 -7 3 C-6.01 2.67 -5.02 2.34 -4 2 C-4 1.34 -4 0.68 -4 0 C-4.66 0 -5.32 0 -6 0 Z " fill="#000000" transform="translate(44,139)"/>
<path d="M0 0 C0.33 0.66 0.66 1.32 1 2 C0.34 2 -0.32 2 -1 2 C-1 2.66 -1 3.32 -1 4 C-4.36894537 5.65844033 -7.7461001 7.29944866 -11.125 8.9375 C-12.55199219 9.64036133 -12.55199219 9.64036133 -14.0078125 10.35742188 C-18.6564299 12.60102541 -22.77420755 14.58651137 -28 15 C-25.85526389 12.85526389 -24.1242971 11.99545242 -21.38671875 10.72265625 C-20.46826172 10.29146484 -19.54980469 9.86027344 -18.60351562 9.41601562 C-17.16008789 8.74602539 -17.16008789 8.74602539 -15.6875 8.0625 C-13.7944517 7.18078869 -11.90248835 6.29674353 -10.01171875 5.41015625 C-9.17084717 5.01965088 -8.32997559 4.62914551 -7.46362305 4.22680664 C-4.88722668 2.94384244 -2.44854445 1.51089708 0 0 Z " fill="#EB8973" transform="translate(317,385)"/>
<path d="" fill="#000000" transform="translate(0,0)"/>
</svg>
